<svg xmlns="http://www.w3.org/2000/svg" viewBox="0 0 79.25 69.13"><defs><style>.cls-1{fill:#e5e5e5;}.cls-2{fill:#000003;}.cls-3{fill:#fff;}</style></defs><title>Asset 1@sticker</title><g id="Layer_2" data-name="Layer 2"><g id="Layer_1-2" data-name="Layer 1"><path class="cls-1" d="M71.54,28.42l2.59-19.1a3,3,0,0,0-4.86-2.8L57.73,15.44a27.87,27.87,0,0,0-11.13-2.3H33.81a27.92,27.92,0,0,0-7.52,1L8.79.64a3,3,0,0,0-4.85,2.8L7.67,31.1a28,28,0,0,0,26.14,38H46.6A28,28,0,0,0,71.54,28.42"/><path class="cls-2" d="M18.71,33.2,2.33,25.72l-1.5,6,18.25,5.56c1.81,4.88,8.36,14.08,20.08,11.85S56.08,42.3,58.82,40.3c3.72-.92,4.17.84,9.15,4.11C74.19,48.5,81.1,37.68,78.8,31.78c-1.84-4.73-5.62-4.09-7.6-3.91-6.79,1.8-5.62,7.29-9.85,8.12-5.45,1.09-3.45-1.85-17.29-6.11C33,26.46,22.41,31,18.71,33.2"/><path class="cls-3" d="M36.3,16.42C37.7,31.71,36.15,33.57,20.86,35c15.29-1.4,17.15.14,18.55,15.44-1.4-15.3.14-17.16,15.44-18.56-15.3,1.4-17.15-.14-18.55-15.43"/><path d="M57.64,48.17h-.07a.5.5,0,0,1-.43-.56,4.22,4.22,0,0,1,3.64-4A3.6,3.6,0,0,1,65,46a.51.51,0,0,1-.32.63.5.5,0,0,1-.63-.32,2.61,2.61,0,0,0-3-1.74,3.25,3.25,0,0,0-2.84,3.19A.5.5,0,0,1,57.64,48.17Z"/><circle cx="57.64" cy="47.67" r="1.33"/><circle cx="64.62" cy="46.82" r="1.33"/><path class="cls-2" d="M4.18,12.27a4.15,4.15,0,0,1-2.74-1.06A4.12,4.12,0,1,1,7.66,5.94,1,1,0,1,1,6,7,2.11,2.11,0,0,0,4.14,6,2.14,2.14,0,0,0,2,8.11a2.25,2.25,0,0,0,.76,1.61,2.14,2.14,0,0,0,1.64.54,1,1,0,0,1,1.11.87,1,1,0,0,1-.87,1.11Z"/></g></g></svg>