<svg width="1270" height="619" viewBox="0 0 1270 619" fill="none" xmlns="http://www.w3.org/2000/svg">
<rect width="1270" height="619" rx="35" fill="#695CA5"/>
<path d="M270.635 297.709L298.129 141.907L295.838 139.616H277.28L274.988 141.907L247.494 297.709L249.785 300H268.344L270.635 297.709ZM437.839 297.709L465.333 141.907L463.5 139.616H444.942L442.192 141.907L421.113 261.05H418.822L360.167 141.907L356.043 139.616H337.484L334.735 141.907L307.241 297.709L309.074 300H327.632L330.382 297.709L351.461 178.566H353.752L412.407 297.709L416.531 300H435.09L437.839 297.709ZM533.489 267.923H531.198L507.599 141.907L505.308 139.616H492.935L490.644 141.907L487.895 157.946L515.847 297.709L518.138 300H538.759L541.05 297.709L618.493 157.946L621.242 141.907L618.951 139.616H603.829L601.538 141.907L533.489 267.923ZM726.84 297.709L729.589 281.67L727.298 279.379H648.023L645.731 277.088L653.751 231.264L656.042 228.973H732.339L734.63 226.682L737.609 210.643L735.317 208.352H660.624L658.333 206.061L665.894 162.528L668.185 160.237H749.065L751.356 157.946L754.105 141.907L751.814 139.616H648.71L646.419 141.907L618.924 297.709L621.216 300H724.549L726.84 297.709ZM883.409 254.176C883.409 226.682 864.163 214.538 836.44 208.352C808.716 202.166 797.031 197.125 797.031 183.149C797.031 162.986 818.568 157.946 835.294 157.946C860.956 157.946 868.975 167.11 868.975 178.566C868.975 180.858 868.517 183.149 868.058 185.44L870.35 187.731H888.679L890.97 185.44C891.658 183.149 891.887 180.628 891.887 178.566C891.887 153.363 869.662 137.325 837.585 137.325C800.926 137.325 774.119 153.363 774.119 183.149C774.119 209.498 794.282 220.495 821.776 226.682C849.729 232.868 860.497 238.367 860.497 254.176C860.497 272.506 842.168 281.67 816.965 281.67C792.678 281.67 780.305 272.506 780.305 256.467C780.305 254.176 780.534 251.656 780.993 249.594L778.931 247.302H760.372L758.081 249.594C757.622 251.656 757.393 254.176 757.393 256.467C757.393 281.67 775.723 302.291 814.673 302.291C851.333 302.291 883.409 288.544 883.409 254.176ZM1040.15 157.946L1042.9 141.907L1040.61 139.616H916.888L914.597 141.907L911.847 157.946L914.138 160.237H961.337L963.628 162.528L939.8 297.709L942.091 300H960.65L962.941 297.709L986.769 162.528L989.061 160.237H1037.86L1040.15 157.946ZM230.395 433.176C230.395 405.682 211.149 393.538 183.425 387.352C155.702 381.166 144.017 376.125 144.017 362.149C144.017 341.986 165.554 336.946 182.28 336.946C207.941 336.946 215.96 346.11 215.96 357.566C215.96 359.858 215.502 362.149 215.044 364.44L217.335 366.731H235.665L237.956 364.44C238.643 362.149 238.872 359.628 238.872 357.566C238.872 332.363 216.648 316.325 184.571 316.325C147.912 316.325 121.105 332.363 121.105 362.149C121.105 388.498 141.267 399.495 168.762 405.682C196.714 411.868 207.483 417.367 207.483 433.176C207.483 451.506 189.153 460.67 163.95 460.67C139.663 460.67 127.291 451.506 127.291 435.467C127.291 433.176 127.52 430.656 127.978 428.594L125.916 426.302H107.358L105.066 428.594C104.608 430.656 104.379 433.176 104.379 435.467C104.379 460.67 122.709 481.291 161.659 481.291C198.318 481.291 230.395 467.544 230.395 433.176ZM417.33 476.709L444.824 320.907L442.533 318.616H415.268L412.977 320.907L338.284 446.923H335.992L305.749 320.907L303.457 318.616H279.858L277.567 320.907L250.072 476.709L252.364 479H270.922L273.214 476.709L292.689 366.731H294.98L321.1 476.709L323.391 479H344.012L346.303 476.709L411.373 366.731H413.664L394.189 476.709L396.48 479H415.039L417.33 476.709ZM575.342 476.709L578.092 460.67L547.619 320.907L545.328 318.616H524.707L522.416 320.907L443.14 460.67L440.391 476.709L442.682 479H456.887L459.178 476.709L478.883 442.341L483.465 440.05H545.328L549.91 442.341L557.7 476.709L559.991 479H573.051L575.342 476.709ZM545.098 417.138L542.807 419.429H494.921L492.63 417.138L529.06 352.984H531.351L545.098 417.138ZM745.093 357.566C745.093 332.363 726.764 318.616 694.687 318.616H628.013L625.722 320.907L598.227 476.709L600.519 479H619.077L621.369 476.709L632.825 412.555L635.116 410.264H672.921L677.503 412.555L707.518 476.709L711.642 479H719.89L722.181 476.709L724.931 460.67L702.019 410.951L702.248 408.66C729.055 403.39 745.093 384.603 745.093 357.566ZM639.469 389.643L637.178 387.352L645.197 341.528L647.488 339.237H694.687C713.017 339.237 722.181 343.819 722.181 357.566C722.181 380.478 706.143 389.643 685.522 389.643H639.469ZM888.787 336.946L891.537 320.907L889.246 318.616H765.521L763.23 320.907L760.48 336.946L762.771 339.237H809.97L812.261 341.528L788.433 476.709L790.724 479H809.283L811.574 476.709L835.402 341.528L837.694 339.237H886.496L888.787 336.946ZM994.78 476.709L997.53 460.67L995.239 458.379H915.963L913.672 456.088L921.691 410.264L923.982 407.973H1000.28L1002.57 405.682L1005.55 389.643L1003.26 387.352H928.565L926.274 385.061L933.835 341.528L936.126 339.237H1017.01L1019.3 336.946L1022.05 320.907L1019.75 318.616H916.651L914.359 320.907L886.865 476.709L889.156 479H992.489L994.78 476.709ZM1173.57 357.566C1173.57 332.363 1155.25 318.616 1123.17 318.616H1056.49L1054.2 320.907L1026.71 476.709L1029 479H1047.56L1049.85 476.709L1061.31 412.555L1063.6 410.264H1101.4L1105.98 412.555L1136 476.709L1140.12 479H1148.37L1150.66 476.709L1153.41 460.67L1130.5 410.951L1130.73 408.66C1157.54 403.39 1173.57 384.603 1173.57 357.566ZM1067.95 389.643L1065.66 387.352L1073.68 341.528L1075.97 339.237H1123.17C1141.5 339.237 1150.66 343.819 1150.66 357.566C1150.66 380.478 1134.62 389.643 1114 389.643H1067.95Z" fill="white"/>
</svg>
